<svg width="24px" height="24px" viewBox="0 0 24 24" data-name="025_SCIENCE" id="_025_SCIENCE" xmlns="http://www.w3.org/2000/svg">
    <defs>
        <style>.cls-1{fill:#c2c9ce;}</style>
    </defs>
    <path class="cls-1" d="M6,9A3,3,0,1,1,9,6,3,3,0,0,1,6,9ZM6,5A1,1,0,1,0,7,6,1,1,0,0,0,6,5Z"/>
    <path class="cls-1" d="M12,15a3,3,0,1,1,3-3A3,3,0,0,1,12,15Zm0-4a1,1,0,1,0,1,1A1,1,0,0,0,12,11Z"/>
    <path class="cls-1" d="M18,9a3,3,0,1,1,3-3A3,3,0,0,1,18,9Zm0-4a1,1,0,1,0,1,1A1,1,0,0,0,18,5Z"/>
    <path class="cls-1" d="M18,21a3,3,0,1,1,3-3A3,3,0,0,1,18,21Zm0-4a1,1,0,1,0,1,1A1,1,0,0,0,18,17Z"/>
    <path class="cls-1" d="M6,21a3,3,0,1,1,3-3A3,3,0,0,1,6,21Zm0-4a1,1,0,1,0,1,1A1,1,0,0,0,6,17Z"/>
    <rect class="cls-1" height="4.83" transform="translate(-3.73 9) rotate(-45)" width="2" x="8" y="6.59"/>
    <rect class="cls-1" height="2" transform="translate(-1.97 13.24) rotate(-45)" width="4.83" x="12.59" y="8"/>
    <rect class="cls-1" height="2" transform="translate(-7.97 10.76) rotate(-45)" width="4.83" x="6.59" y="14"/>
    <rect class="cls-1" height="4.83" transform="translate(-6.21 15) rotate(-45)" width="2" x="14" y="12.59"/>
</svg>